<?xml version="1.0" encoding="UTF-8" standalone="no"?>
<svg
   width="24"
   height="25"
   viewBox="0 0 24 25"
   fill="none"
   version="1.1"
   id="svg217"
   sodipodi:docname="icon-discord.svg"
   inkscape:version="1.2 (dc2aedaf03, 2022-05-15)"
   xmlns:inkscape="http://www.inkscape.org/namespaces/inkscape"
   xmlns:sodipodi="http://sodipodi.sourceforge.net/DTD/sodipodi-0.dtd"
   xmlns="http://www.w3.org/2000/svg"
   xmlns:svg="http://www.w3.org/2000/svg">
  <sodipodi:namedview
     id="namedview219"
     pagecolor="#ffffff"
     bordercolor="#000000"
     borderopacity="0.25"
     inkscape:showpageshadow="2"
     inkscape:pageopacity="0.0"
     inkscape:pagecheckerboard="0"
     inkscape:deskcolor="#d1d1d1"
     showgrid="false"
     inkscape:zoom="33.48"
     inkscape:cx="12.007168"
     inkscape:cy="12.514934"
     inkscape:window-width="1920"
     inkscape:window-height="1017"
     inkscape:window-x="-8"
     inkscape:window-y="-8"
     inkscape:window-maximized="1"
     inkscape:current-layer="svg217" />
  <defs
     id="defs215">
    <clipPath
       id="clip0_115_513">
      <rect
         width="24"
         height="24"
         fill="white"
         transform="translate(0 0.5)"
         id="rect212" />
    </clipPath>
  </defs>
  <g
     id="layer1"
     transform="translate(-282.28309,-396.36624)">
	<path
   id="path5"
   class="st0"
   d="m 306.3,401.7 c -0.9,0.4 -1.8,0.7 -2.8,0.8 1,-0.6 1.8,-1.6 2.2,-2.7 -0.9,0.6 -2,1 -3.1,1.2 -0.9,-1 -2.2,-1.6 -3.6,-1.6 -2.7,0 -4.9,2.2 -4.9,4.9 0,0.4 0,0.8 0.1,1.1 -4.1,-0.2 -7.7,-2.2 -10.1,-5.1 -0.4,0.7 -0.7,1.6 -0.7,2.5 0,1.7 0.9,3.2 2.2,4.1 -0.8,0 -1.6,-0.2 -2.2,-0.6 0,0 0,0 0,0.1 0,2.4 1.7,4.4 3.9,4.8 -0.4,0.1 -0.8,0.2 -1.3,0.2 -0.3,0 -0.6,0 -0.9,-0.1 0.6,2 2.4,3.4 4.6,3.4 -1.7,1.3 -3.8,2.1 -6.1,2.1 -0.4,0 -0.8,0 -1.2,-0.1 2.2,1.4 4.8,2.2 7.5,2.2 9,0 14,-7.5 14,-14 0,-0.2 0,-0.4 0,-0.6 0.9,-0.7 1.7,-1.6 2.4,-2.6 z"
   style="fill:#f24139" />

</g>
</svg>
